<?xml version="1.0" encoding="UTF-8"?>
<svg width="168px" height="171px" viewBox="0 0 168 171" version="1.1" xmlns="http://www.w3.org/2000/svg" xmlns:xlink="http://www.w3.org/1999/xlink">
    <!-- Generator: Sketch 53.2 (72643) - https://sketchapp.com -->
    <title>Group 5</title>
    <desc>Created with Sketch.</desc>
    <defs>
        <rect id="path-1" x="0" y="1.33546626e-05" width="158" height="161" rx="10"></rect>
        <filter x="-4.4%" y="-3.7%" width="111.4%" height="111.2%" filterUnits="objectBoundingBox" id="filter-2">
            <feMorphology radius="0.5" operator="dilate" in="SourceAlpha" result="shadowSpreadOuter1"></feMorphology>
            <feOffset dx="2" dy="3" in="shadowSpreadOuter1" result="shadowOffsetOuter1"></feOffset>
            <feGaussianBlur stdDeviation="2" in="shadowOffsetOuter1" result="shadowBlurOuter1"></feGaussianBlur>
            <feColorMatrix values="0 0 0 0 0   0 0 0 0 0.101960784   0 0 0 0 0.345098039  0 0 0 0.1 0" type="matrix" in="shadowBlurOuter1"></feColorMatrix>
        </filter>
    </defs>
    <g id="Symbols" stroke="none" stroke-width="1" fill="none" fill-rule="evenodd">
        <g id="Group-5" transform="translate(3.000000, 1.999987)">
            <g id="Rectangle-Copy-2">
                <use fill="black" fill-opacity="1" filter="url(#filter-2)" xlink:href="#path-1"></use>
                <use fill="#3367E3" fill-rule="evenodd" xlink:href="#path-1"></use>
                <use fill-opacity="0.9" fill="#FFFFFF" fill-rule="evenodd" xlink:href="#path-1"></use>
                <use fill="#E3F5FF" fill-rule="evenodd" xlink:href="#path-1"></use>
            </g>
            <path d="M26,1.3354663e-05 C48.432405,1.21225152 69.3295485,5.41399808 88.6914305,12.605253 C117.734254,23.3921355 126.188561,39.7695607 157.906997,41.0000134 C157.906997,30.66668 157.906997,20.3333467 157.906997,10.0000134 L157.906997,10.0000134 C157.906997,4.47716586 153.429844,1.3354663e-05 147.906997,1.3354663e-05 L26,1.3354663e-05 Z" id="Path-Copy-4" fill-opacity="0.5" fill="#CDEEFF"></path>
            <path d="M87,-1.0658141e-14 C99.1184242,1.18268028 110.40747,5.28194967 120.867138,12.2978082 C136.556639,22.8215959 140.834208,38.7995717 157.969128,40.0000134 C157.969128,34.2372226 158,19.6135377 158,13.850747 C158,12.658144 157.998928,11.3694028 157.996783,9.98452353 L157.996782,9.98452353 C157.988238,4.46773095 153.513596,1.25162406e-05 147.996797,1.14781132e-05 L87,-1.0658141e-14 Z" id="Path-Copy-5" fill-opacity="0.3" fill="#B4E5FF"></path>
        </g>
    </g>
</svg>