<?xml version="1.0" encoding="UTF-8"?>
<svg width="27px" height="27px" viewBox="0 0 27 27" version="1.1" xmlns="http://www.w3.org/2000/svg" xmlns:xlink="http://www.w3.org/1999/xlink">
    <!-- Generator: Sketch 53.1 (72631) - https://sketchapp.com -->
    <title>Arkisto_icon</title>
    <desc>Created with Sketch.</desc>
    <g id="Page-1" stroke="none" stroke-width="1" fill="none" fill-rule="evenodd">
        <g id="Virkailija-etusivu" transform="translate(-150.000000, -1086.000000)" fill="#001A58" stroke="#001A58" stroke-width="0.7">
            <path d="M163.5,1093 C163.224,1093 163,1093.225 163,1093.5 L163,1099.5 C163,1099.501 163,1099.502 163,1099.502 C163,1099.625 163.046,1099.749 163.143,1099.848 C163.145,1099.85 163.145,1099.853 163.146,1099.854 L167.146,1103.854 C167.341,1104.049 167.658,1104.049 167.853,1103.854 C168.048,1103.658 168.048,1103.342 167.853,1103.146 L164,1099.293 L164,1093.5 C164,1093.225 163.776,1093 163.5,1093 M176,1099.5 C176,1106.393 170.393,1112 163.5,1112 C159.914,1112 156.496,1110.456 154.122,1107.766 C153.939,1107.559 153.959,1107.242 154.166,1107.06 C154.374,1106.877 154.689,1106.896 154.872,1107.104 C157.057,1109.58 160.201,1111 163.5,1111 C169.841,1111 175,1105.841 175,1099.5 C175,1093.159 169.841,1088 163.5,1088 C158.816,1088 154.715,1090.771 152.929,1095 L155.5,1095 C155.776,1095 156,1095.224 156,1095.5 C156,1095.776 155.776,1096 155.5,1096 L151.5,1096 C151.224,1096 151,1095.776 151,1095.5 L151,1091.5 C151,1091.224 151.224,1091 151.5,1091 C151.776,1091 152,1091.224 152,1091.5 L152,1094.616 C153.939,1090.014 158.405,1087 163.5,1087 C170.393,1087 176,1092.607 176,1099.5" id="Arkisto_icon"></path>
        </g>
    </g>
</svg>