<svg width="20" height="20" xmlns="http://www.w3.org/2000/svg" xmlns:xlink="http://www.w3.org/1999/xlink">
    <defs>
        <path d="M13.6 9.79c.97-.67 1.65-1.77 1.65-2.79 0-2.26-1.75-4-4-4H5v14h7.04c2.09 0 3.71-1.7 3.71-3.79 0-1.52-.86-2.82-2.15-3.42zM8 5.5h3c.83 0 1.5.67 1.5 1.5s-.67 1.5-1.5 1.5H8v-3zm3.5 9H8v-3h3.5c.83 0 1.5.67 1.5 1.5s-.67 1.5-1.5 1.5z" id="a"/>
    </defs>
    <g fill="none" fill-rule="evenodd">
        <mask id="b" fill="#fff">
            <use xlink:href="#a"/>
        </mask>
        <use fill="#000" fill-rule="nonzero" xlink:href="#a"/>
        <g mask="url(#b)" fill="#575757">
            <path d="M0 0h20v20H0z"/>
        </g>
    </g>
</svg>
