<?xml version="1.0" encoding="UTF-8"?>
<svg width="20px" height="20px" viewBox="0 0 20 20" version="1.1" xmlns="http://www.w3.org/2000/svg" xmlns:xlink="http://www.w3.org/1999/xlink">
    <!-- Generator: Sketch 61 (89581) - https://sketch.com -->
    <title>Bulletit</title>
    <desc>Created with Sketch.</desc>
    <defs>
        <path d="M2,8.5 C1.17,8.5 0.5,9.17 0.5,10 C0.5,10.83 1.17,11.5 2,11.5 C2.83,11.5 3.5,10.83 3.5,10 C3.5,9.17 2.83,8.5 2,8.5 Z M2,2.5 C1.17,2.5 0.5,3.17 0.5,4 C0.5,4.83 1.17,5.5 2,5.5 C2.83,5.5 3.5,4.83 3.5,4 C3.5,3.17 2.83,2.5 2,2.5 Z M2,14.5 C1.17,14.5 0.5,15.18 0.5,16 C0.5,16.82 1.18,17.5 2,17.5 C2.82,17.5 3.5,16.82 3.5,16 C3.5,15.18 2.83,14.5 2,14.5 Z M5,17 L19,17 L19,15 L5,15 L5,17 Z M5,11 L19,11 L19,9 L5,9 L5,11 Z M5,3 L5,5 L19,5 L19,3 L5,3 Z" id="path-1"></path>
    </defs>
    <g id="ASSETIT-+-tekstityylit" stroke="none" stroke-width="1" fill="none" fill-rule="evenodd">
        <g id="Ryhma-Copy-59">
            <mask id="mask-2" fill="white">
                <use xlink:href="#path-1"></use>
            </mask>
            <use id="Shape" fill="#000000" fill-rule="nonzero" xlink:href="#path-1"></use>
        </g>
    </g>
</svg>