<?xml version="1.0" encoding="UTF-8"?>
<svg width="25px" height="25px" viewBox="0 0 25 25" version="1.1" xmlns="http://www.w3.org/2000/svg" xmlns:xlink="http://www.w3.org/1999/xlink">
    <!-- Generator: Sketch 53.1 (72631) - https://sketchapp.com -->
    <title>faq_icon</title>
    <desc>Created with Sketch.</desc>
    <g id="Page-1" stroke="none" stroke-width="1" fill="none" fill-rule="evenodd">
        <g id="Virkailija-etusivu" transform="translate(-688.000000, -714.000000)" fill="#001A58" fill-rule="nonzero">
            <g id="faq_icon" transform="translate(688.000000, 714.000000)">
                <path d="M24.9018334,22.6394548 L23.1855633,17.6446831 C24.0110565,15.976032 24.4476314,14.1161212 24.4505611,12.2446382 C24.4555416,9.02188664 23.2086103,5.9745744 20.9393584,3.66422452 C18.6697647,1.35343519 15.6453813,0.0527525426 12.4234382,0.00162953299 C10.7353909,-0.0254700566 9.09739281,0.285564873 7.55246167,0.925066361 C6.06236483,1.54191161 4.72607751,2.43541682 3.58075814,3.58072849 C2.43538994,4.72604015 1.54187872,6.06231848 0.925078139,7.55240528 C0.285572347,9.09732603 -0.0251228767,10.7361432 0.00158626795,12.423349 C0.0526119648,15.6452705 1.35335219,18.6696335 3.66415708,20.9392608 C5.97003029,23.204054 9.00950166,24.4505863 12.2253413,24.4505375 C12.2316401,24.4505375 12.2382808,24.4505375 12.2445797,24.4505375 C14.1160753,24.4476078 15.9759986,24.0110359 17.6447097,23.1855482 L22.6395151,24.9018067 C22.8316061,24.9678223 23.0284823,25 23.22321,25 C23.6858105,25 24.1358132,24.8182619 24.4770261,24.4769535 C24.9618435,23.9921394 25.1246863,23.2880384 24.9018334,22.6394548 Z M23.4289241,23.4289074 C23.3797539,23.4780773 23.2744799,23.5526866 23.1211098,23.5000499 L17.8284022,21.6813989 C17.7501303,21.6545435 17.6687333,21.6411646 17.5875805,21.6411646 C17.4679509,21.6411646 17.3488584,21.6701196 17.2409964,21.7271996 C15.7113485,22.5364276 13.9828225,22.9656265 12.2422359,22.9682632 C6.40479853,22.977687 1.57605861,18.2363331 1.48357758,12.3998627 C1.4370441,9.46339022 2.55404299,6.70357778 4.62881131,4.62882343 C6.70357962,2.55411791 9.46258055,1.43732185 12.3999029,1.48375736 C18.2363637,1.57628659 22.9773589,6.40260143 22.9682768,12.2423433 C22.9655425,13.982967 22.5363895,15.7114814 21.7272049,17.2410213 C21.6314036,17.4220758 21.6148508,17.6347222 21.6814039,17.8284232 L23.5000671,23.1210951 C23.552753,23.2743665 23.4781432,23.3797863 23.4289241,23.4289074 Z" id="Shape"></path>
                <path d="M12.0689655,17.2413793 C11.6184309,17.2413793 11.1867939,17.6378811 11.2076209,18.1034483 C11.2285048,18.5704922 11.5860836,18.9655172 12.0689655,18.9655172 C12.5195001,18.9655172 12.9511372,18.5690155 12.9303101,18.1034483 C12.9094263,17.6363475 12.5518474,17.2413793 12.0689655,17.2413793 Z" id="Path"></path>
                <path d="M12.0689655,6.03448276 C10.1675849,6.03448276 8.62068966,7.68024968 8.62068966,9.70315937 C8.62068966,10.1103745 8.9310185,10.4405384 9.31376959,10.4405384 C9.69652067,10.4405384 10.0068495,10.1103745 10.0068495,9.70315937 C10.0068495,8.4934653 10.9319455,7.50924072 12.0689655,7.50924072 C13.2059856,7.50924072 14.1310815,8.4934653 14.1310815,9.70315937 C14.1310815,10.9128534 13.2059856,11.897078 12.0689655,11.897078 C11.6862144,11.897078 11.3758856,12.2272419 11.3758856,12.634457 L11.3758856,15.6419314 C11.3758856,16.0491465 11.6862144,16.3793103 12.0689655,16.3793103 C12.4517166,16.3793103 12.7620454,16.049195 12.7620454,15.6418828 L12.7620454,13.2973596 C14.332366,12.9550988 15.5172414,11.4735879 15.5172414,9.70315937 C15.5172414,7.68024968 13.9703462,6.03448276 12.0689655,6.03448276 Z" id="Path"></path>
            </g>
        </g>
    </g>
</svg>