<?xml version="1.0" encoding="UTF-8"?>
<svg width="20px" height="20px" viewBox="0 0 20 20" version="1.1" xmlns="http://www.w3.org/2000/svg" xmlns:xlink="http://www.w3.org/1999/xlink">
    <!-- Generator: Sketch 61 (89581) - https://sketch.com -->
    <title>Info</title>
    <desc>Created with Sketch.</desc>
    <defs>
        <path d="M8,0 L7.99933333,2.666 L11.9993333,2.666 L12,0 L14.6666667,0 L14.6663333,2.666 L17.3333333,2.66666667 C18.069713,2.66666667 18.6666667,3.26362033 18.6666667,4 L18.6666667,18.6666667 C18.6666667,19.4030463 18.069713,20 17.3333333,20 L2.66666667,20 C1.930287,20 1.33333333,19.4030463 1.33333333,18.6666667 L1.33333333,4 C1.33333333,3.26362033 1.930287,2.66666667 2.66666667,2.66666667 L5.33333333,2.666 L5.33333333,0 L8,0 Z M15.9993333,10.6656667 L3.99933333,10.6656667 L4,17.3333333 L16,17.3333333 L15.9993333,10.6656667 Z M16,5.33333333 L4,5.33333333 L3.99933333,7.99966667 L15.9993333,7.99966667 L16,5.33333333 Z" id="path-1"></path>
    </defs>
    <g id="Info" stroke="none" stroke-width="1" fill="none" fill-rule="evenodd">
        <g id="Ikonit/Kalenteri">
            <mask id="mask-2" fill="white">
                <use xlink:href="#path-1"></use>
            </mask>
            <use id="Combined-Shape" fill="#979797" fill-rule="nonzero" xlink:href="#path-1"></use>
            <g id="Värit/Tumma-harmaa" mask="url(#mask-2)" fill="#575757" fill-rule="evenodd">
                <rect id="Rectangle" x="0" y="0" width="20" height="20"></rect>
            </g>
        </g>
    </g>
</svg>