<?xml version="1.0" encoding="UTF-8"?>
<svg width="20px" height="20px" viewBox="0 0 20 20" version="1.1" xmlns="http://www.w3.org/2000/svg" xmlns:xlink="http://www.w3.org/1999/xlink">
    <!-- Generator: Sketch 61 (89581) - https://sketch.com -->
    <title>Kohdista</title>
    <desc>Created with Sketch.</desc>
    <defs>
        <path d="M2,13 L0,13 L0,17.7777778 C0,19 1,20 2.22222222,20 L7,20 L7,18 L2,18 L2,13 Z M2,2 L7,2 L7,0 L2.22222222,0 C1,0 0,1 0,2.22222222 L0,7 L2,7 L2,2 Z M17.7777778,0 L13,0 L13,2 L18,2 L18,7 L20,7 L20,2.22222222 C20,1 19,0 17.7777778,0 Z M18,18 L13,18 L13,20 L17.7777778,20 C19,20 20,19 20,17.7777778 L20,13 L18,13 L18,18 Z M10,7 C8.34,7 7,8.34 7,10 C7,11.66 8.34,13 10,13 C11.66,13 13,11.66 13,10 C13,8.34 11.66,7 10,7 Z" id="path-1"></path>
    </defs>
    <g id="ASSETIT-+-tekstityylit" stroke="none" stroke-width="1" fill="none" fill-rule="evenodd">
        <g id="Ryhma-Copy-41">
            <mask id="mask-2" fill="white">
                <use xlink:href="#path-1"></use>
            </mask>
            <use id="Mask" fill="#000000" fill-rule="nonzero" xlink:href="#path-1"></use>
        </g>
    </g>
</svg>