<svg width="20" height="20" xmlns="http://www.w3.org/2000/svg" xmlns:xlink="http://www.w3.org/1999/xlink">
    <defs>
        <path d="M18 0H2C.9 0 0 .9 0 2v12a2 2 0 002 2h3v4l5-4h8c1.1 0 2-.9 2-2V2c0-1.1-.9-2-2-2zm0 14H9l-2 2v-2H2V2h16v12zM9 9h7v2H9V9zM4 5h12v2H4V5z" id="a"/>
    </defs>
    <g fill="none" fill-rule="evenodd">
        <mask id="b" fill="#fff">
            <use xlink:href="#a"/>
        </mask>
        <use fill="#000" fill-rule="nonzero" transform="matrix(-1 0 0 1 20 0)" xlink:href="#a"/>
        <g mask="url(#b)" fill="#575757">
            <path d="M20 0H0v20h20z"/>
        </g>
    </g>
</svg>
