<?xml version="1.0" encoding="UTF-8"?>
<svg width="18px" height="19px" viewBox="0 0 18 19" version="1.1" xmlns="http://www.w3.org/2000/svg" xmlns:xlink="http://www.w3.org/1999/xlink">
    <!-- Generator: Sketch 61 (89581) - https://sketch.com -->
    <title>koulutusvienti</title>
    <desc>Created with Sketch.</desc>
    <g id="ASSETIT-+-tekstityylit" stroke="none" stroke-width="1" fill="none" fill-rule="evenodd">
        <g id="koulutusvienti" transform="translate(-2.000000, -5.000000)" fill="#000000" fill-rule="nonzero">
            <g id="Mask" transform="translate(12.999940, 12.500146) rotate(45.000000) translate(-12.999940, -12.500146) translate(4.999940, 3.000146)">
                <path d="M7.9997943,0 L15.0987738,16.8605099 C15.3130871,17.369517 15.0741905,17.9558841 14.5651834,18.1701974 C14.3297133,18.2693401 14.0652261,18.2745954 13.8260035,18.1848846 L7.9997943,16 L2.17358507,18.1848846 C1.65646639,18.3788091 1.080052,18.1168085 0.88612751,17.5996898 C0.79641673,17.3604672 0.801672,17.09598 0.90081477,16.8605099 L7.9997943,0 Z M7.002,6.392 L2.99866707,15.9992218 L7.002,14.399 L7.002,6.392 Z M9.002,6.405 L9.002,14.399 L13.0042039,15.9992218 L9.002,6.405 Z" id="path-1"></path>
            </g>
        </g>
    </g>
</svg>