<svg width="20" height="20" xmlns="http://www.w3.org/2000/svg" xmlns:xlink="http://www.w3.org/1999/xlink">
    <defs>
        <path d="M10 5c.825 0 1.5-.675 1.5-1.5S10.825 2 10 2s-1.5.675-1.5 1.5S9.175 5 10 5zm0 3c-.825 0-1.5.675-1.5 1.5S9.175 11 10 11s1.5-.675 1.5-1.5S10.825 8 10 8zm0 6c-.825 0-1.5.675-1.5 1.5S9.175 17 10 17s1.5-.675 1.5-1.5S10.825 14 10 14z" id="a"/>
    </defs>
    <g fill="none" fill-rule="evenodd">
        <mask id="b" fill="#fff">
            <use xlink:href="#a"/>
        </mask>
        <use fill="#000" fill-rule="nonzero" transform="rotate(90 10 9.5)" xlink:href="#a"/>
        <g mask="url(#b)" fill="#575757">
            <path d="M0 0h20v20H0z"/>
        </g>
    </g>
</svg>
