<?xml version="1.0" encoding="UTF-8"?>
<svg width="20px" height="20px" viewBox="0 0 20 20" version="1.1" xmlns="http://www.w3.org/2000/svg" xmlns:xlink="http://www.w3.org/1999/xlink">
    <!-- Generator: Sketch 61 (89581) - https://sketch.com -->
    <title>Lihapullat</title>
    <desc>Created with Sketch.</desc>
    <defs>
        <path d="M10,5 C10.825,5 11.5,4.325 11.5,3.5 C11.5,2.675 10.825,2 10,2 C9.175,2 8.5,2.675 8.5,3.5 C8.5,4.325 9.175,5 10,5 Z M10,8 C9.175,8 8.5,8.675 8.5,9.5 C8.5,10.325 9.175,11 10,11 C10.825,11 11.5,10.325 11.5,9.5 C11.5,8.675 10.825,8 10,8 Z M10,14 C9.175,14 8.5,14.675 8.5,15.5 C8.5,16.325 9.175,17 10,17 C10.825,17 11.5,16.325 11.5,15.5 C11.5,14.675 10.825,14 10,14 Z" id="path-1"></path>
    </defs>
    <g id="ASSETIT-+-tekstityylit" stroke="none" stroke-width="1" fill="none" fill-rule="evenodd">
        <g id="Ryhma-Copy-49">
            <g id="Ikonit/Lihapullat">
                <mask id="mask-2" fill="white">
                    <use xlink:href="#path-1"></use>
                </mask>
                <use id="Mask" fill="#000000" fill-rule="nonzero" transform="translate(10.000000, 9.500000) rotate(90.000000) translate(-10.000000, -9.500000) " xlink:href="#path-1"></use>
            </g>
        </g>
    </g>
</svg>