<?xml version="1.0" encoding="UTF-8"?>
<svg width="20px" height="20px" viewBox="0 0 20 20" version="1.1" xmlns="http://www.w3.org/2000/svg" xmlns:xlink="http://www.w3.org/1999/xlink">
    <!-- Generator: Sketch 61 (89581) - https://sketch.com -->
    <title>Kasitteet</title>
    <desc>Created with Sketch.</desc>
    <defs>
        <path d="M14.0148754,5.09057841 L14.0148754,13.6504385 C14.0148754,15.5875429 12.4445421,17.1578762 10.5074377,17.1578762 C8.57033335,17.1578762 7,15.5875429 7,13.6504385 L7,5.00951853 C7,3.89969209 7.89969209,3 9.00951853,3 C10.119345,3 11.0190371,3.89969209 11.0190371,5.00951853 L11.0190371,12.6857557 C11.0190371,12.9642963 10.7932353,13.1900981 10.5146947,13.1900981 C10.2361541,13.1900981 10.0103523,12.9642963 10.0103523,12.6857557 L10.0103523,5.09057841 L8.01035229,5.09057841 L8.01035229,12.6857557 C8.01035229,14.0688658 9.13158456,15.1900981 10.5146947,15.1900981 C11.8978048,15.1900981 13.0190371,14.0688658 13.0190371,12.6857557 L13.0190371,5.00951853 C13.0190371,2.79512259 11.2239145,1 9.00951853,1 C6.79512259,1 5,2.79512259 5,5.00951853 L5,13.6504385 C5,16.6921124 7.46576385,19.1578762 10.5074377,19.1578762 C13.5491116,19.1578762 16.0148754,16.6921124 16.0148754,13.6504385 L16.0148754,5.09057841 L14.0148754,5.09057841 Z" id="path-1"></path>
    </defs>
    <g id="Kasitteet" stroke="none" stroke-width="1" fill="none" fill-rule="evenodd">
        <g id="Ikonit/Liite">
            <mask id="mask-2" fill="white">
                <use xlink:href="#path-1"></use>
            </mask>
            <use id="Path-5" fill="#000000" fill-rule="nonzero" xlink:href="#path-1"></use>
            <g id="Värit/Tumma-harmaa" mask="url(#mask-2)" fill="#575757" fill-rule="evenodd">
                <rect id="Rectangle" x="0" y="0" width="20" height="20"></rect>
            </g>
        </g>
    </g>
</svg>