<?xml version="1.0" encoding="UTF-8"?>
<svg width="20px" height="20px" viewBox="0 0 20 20" version="1.1" xmlns="http://www.w3.org/2000/svg" xmlns:xlink="http://www.w3.org/1999/xlink">
    <!-- Generator: Sketch 61 (89581) - https://sketch.com -->
    <title>l</title>
    <desc>Created with Sketch.</desc>
    <defs>
        <path d="M15,18 L2,18 L2,5 L10,5 L10,3 L2,3 C0.9,3 0,3.9 0,5 L0,18 C0,19.1 0.9,20 2,20 L15,20 C16.1,20 17,19.1 17,18 L17,10 L15,10 L15,18 Z M8.21,15.83 L6.25,13.47 L3.5,17 L14.5,17 L10.96,12.29 L8.21,15.83 Z M17,3 L17,0 L15,0 L15,3 L12,3 C12.01,3.01 12,5 12,5 L15,5 L15,7.99 C15.01,8 17,7.99 17,7.99 L17,5 L20,5 L20,3 L17,3 Z" id="path-1"></path>
    </defs>
    <g id="l" stroke="none" stroke-width="1" fill="none" fill-rule="evenodd">
        <g id="Ikonit/lisää-kuva">
            <mask id="mask-2" fill="white">
                <use xlink:href="#path-1"></use>
            </mask>
            <use id="Mask" fill="#000000" fill-rule="nonzero" xlink:href="#path-1"></use>
            <g id="Värit/Tumma-harmaa" mask="url(#mask-2)" fill="#575757" fill-rule="evenodd">
                <rect id="Rectangle" x="0" y="0" width="20" height="20"></rect>
            </g>
        </g>
    </g>
</svg>