<?xml version="1.0" encoding="UTF-8"?>
<svg width="20px" height="20px" viewBox="0 0 20 20" version="1.1" xmlns="http://www.w3.org/2000/svg" xmlns:xlink="http://www.w3.org/1999/xlink">
    <!-- Generator: Sketch 61 (89581) - https://sketch.com -->
    <title>Lisaa_kolumni</title>
    <desc>Created with Sketch.</desc>
    <defs>
        <path d="M10,10.5 L9.999,13.5 L13,13.5 L13,15.5 L9.999,15.5 L10,18.5 L8,18.5 L7.999,15.5 L5,15.5 L5,13.5 L7.999,13.5 L8,10.5 L10,10.5 Z M17,1.5 C18.1045695,1.5 19,2.3954305 19,3.5 L19,7.5 C19,8.6045695 18.1045695,9.5 17,9.5 L1,9.5 C-0.1045695,9.5 -1,8.6045695 -1,7.5 L-1,3.5 C-1,2.3954305 -0.1045695,1.5 1,1.5 L17,1.5 Z M17,3.5 L1,3.5 L1,7.5 L17,7.5 L17,3.5 Z" id="path-1"></path>
    </defs>
    <g id="ASSETIT-+-tekstityylit" stroke="none" stroke-width="1" fill="none" fill-rule="evenodd">
        <g id="Ryhma-Copy-108">
            <g id="Värit/harmaa-b17" transform="translate(1.000000, 0.000000)">
                <mask id="mask-2" fill="white">
                    <use xlink:href="#path-1"></use>
                </mask>
                <use id="Mask" fill="#2B2B2B" fill-rule="nonzero" transform="translate(9.000000, 10.000000) rotate(-90.000000) translate(-9.000000, -10.000000) " xlink:href="#path-1"></use>
            </g>
        </g>
    </g>
</svg>