<?xml version="1.0" encoding="UTF-8"?>
<svg width="20px" height="20px" viewBox="0 0 20 20" version="1.1" xmlns="http://www.w3.org/2000/svg" xmlns:xlink="http://www.w3.org/1999/xlink">
    <!-- Generator: Sketch 61 (89581) - https://sketch.com -->
    <title>Lisaa_kolumni_vasemmalle</title>
    <desc>Created with Sketch.</desc>
    <defs>
        <path d="M4,3 L16,3 L16,9.999 L18,10 C19.1045695,10 20,10.8954305 20,12 L20,15 C20,16.1045695 19.1045695,17 18,17 L2,17 C0.8954305,17 0,16.1045695 0,15 L0,12 C0,10.8954305 0.8954305,10 2,10 L4,10 L4,3 Z M18,12 L14.0191858,11.9999099 C14.0127976,11.9999699 14.0064023,12 14,12 L2,12 L2,15 L18,15 L18,12 Z M8,8 L6,8 L6,10 L8,10 L8,8 Z M11,7.999 L9,8 L9,10 L11,10 L11,7.999 Z M14,7.999 L12,7.999 L12,9.999 L14,9.999 L14,7.999 Z M7.999,5 L6,5 L6,7 L7.999,7 L7.999,5 Z M11,5 L8.999,5 L8.999,7 L11,6.999 L11,5 Z M14,5 L11.999,5 L11.999,6.999 L14,6.999 L14,5 Z" id="path-1"></path>
    </defs>
    <g id="Lisaa_kolumni_vasemmalle" stroke="none" stroke-width="1" fill="none" fill-rule="evenodd">
        <g id="Ikonit/tekstieditointi/taulukko/Lisää-kolumni/vasemmalle">
            <mask id="mask-2" fill="white">
                <use xlink:href="#path-1"></use>
            </mask>
            <use id="Combined-Shape" fill="#2B2B2B" fill-rule="nonzero" transform="translate(10.000000, 10.000000) rotate(90.000000) translate(-10.000000, -10.000000) " xlink:href="#path-1"></use>
            <g id="Värit/Tumma-harmaa" mask="url(#mask-2)" fill="#575757" fill-rule="evenodd">
                <rect id="Rectangle" x="0" y="0" width="20" height="20"></rect>
            </g>
        </g>
    </g>
</svg>