<?xml version="1.0" encoding="UTF-8"?>
<svg width="27px" height="27px" viewBox="0 0 27 27" version="1.1" xmlns="http://www.w3.org/2000/svg" xmlns:xlink="http://www.w3.org/1999/xlink">
    <!-- Generator: Sketch 53.1 (72631) - https://sketchapp.com -->
    <title>Luo uusi_icon</title>
    <desc>Created with Sketch.</desc>
    <g id="Page-1" stroke="none" stroke-width="1" fill="none" fill-rule="evenodd">
        <g id="Virkailija-etusivu" transform="translate(-687.000000, -356.000000)" fill="#001A58" stroke="#001A58" stroke-width="0.7">
            <g id="Group-3" transform="translate(688.000000, 357.000000)">
                <path d="M24,2.7432 C24,2.6792 23.984,2.5562 23.88,2.4512 L22.549,1.1202 C22.443,1.0152 22.321,1.0002 22.257,1.0002 C22.193,1.0002 22.07,1.0152 21.966,1.1202 L20.787,2.2992 L22.702,4.2132 L23.88,3.0342 C23.984,2.9302 24,2.8062 24,2.7432 L24,2.7432 Z M21.995,4.9202 L20.08,3.0062 L10.121,12.9652 C10.041,13.0442 10,13.1442 10,13.2572 L10,15.0002 L11.743,15.0002 C11.855,15.0002 11.956,14.9592 12.034,14.8802 L21.995,4.9202 Z M24.587,3.7412 L12.742,15.5862 C12.476,15.8532 12.121,16.0002 11.743,16.0002 L9.941,16.0002 C9.682,16.0002 9.446,15.8942 9.275,15.7242 C9.105,15.5542 9,15.3182 9,15.0582 L9,13.2572 C9,12.8792 9.146,12.5242 9.414,12.2582 L21.259,0.4132 C21.533,0.1382 21.896,0.0002 22.257,0.0002 C22.619,0.0002 22.98,0.1382 23.256,0.4132 L24.587,1.7442 C25.138,2.2952 25.138,3.1912 24.587,3.7412 L24.587,3.7412 Z M23,10.5002 L23,23.5002 C23,24.3272 22.327,25.0002 21.5,25.0002 L1.5,25.0002 C0.673,25.0002 0,24.3272 0,23.5002 L0,3.5002 C0,2.6732 0.673,2.0002 1.5,2.0002 L14.5,2.0002 C14.776,2.0002 15,2.2232 15,2.5002 C15,2.7762 14.776,3.0002 14.5,3.0002 L1.5,3.0002 C1.225,3.0002 1,3.2242 1,3.5002 L1,23.5002 C1,23.7752 1.225,24.0002 1.5,24.0002 L21.5,24.0002 C21.775,24.0002 22,23.7752 22,23.5002 L22,10.5002 C22,10.2232 22.224,10.0002 22.5,10.0002 C22.776,10.0002 23,10.2232 23,10.5002 L23,10.5002 Z" id="Luo-uusi_icon"></path>
            </g>
        </g>
    </g>
</svg>