<?xml version="1.0" encoding="UTF-8"?>
<svg width="24px" height="26px" viewBox="0 0 24 26" version="1.1" xmlns="http://www.w3.org/2000/svg" xmlns:xlink="http://www.w3.org/1999/xlink">
    <!-- Generator: Sketch 53.1 (72631) - https://sketchapp.com -->
    <title>Opetussuunnitelmasi_icon</title>
    <desc>Created with Sketch.</desc>
    <g id="Page-1" stroke="none" stroke-width="1" fill="none" fill-rule="evenodd">
        <g id="Virkailija-etusivu" transform="translate(-151.000000, -355.000000)" fill="#001A58" stroke="#001A58" stroke-width="0.7">
            <path d="M154.869565,363.852308 L152.956522,363.852308 L152.956522,359.435385 C152.956522,359.165462 153.170783,358.944615 153.434783,358.944615 L154.391304,358.944615 C154.655304,358.944615 154.869565,359.165462 154.869565,359.435385 L154.869565,363.852308 Z M154.869565,379.066154 C154.869565,379.336077 154.655304,379.556923 154.391304,379.556923 L153.434783,379.556923 C153.170783,379.556923 152.956522,379.336077 152.956522,379.066154 L152.956522,364.833846 L154.869565,364.833846 L154.869565,379.066154 Z M154.391304,357.963077 L153.434783,357.963077 C152.641826,357.963077 152,358.622671 152,359.435385 L152,379.066154 C152,379.878868 152.641826,380.538462 153.434783,380.538462 L154.391304,380.538462 C155.184261,380.538462 155.826087,379.878868 155.826087,379.066154 L155.826087,359.435385 C155.826087,358.622671 155.184261,357.963077 154.391304,357.963077 L154.391304,357.963077 Z M160.608696,374.158462 C160.608696,373.887557 160.822957,373.667692 161.086957,373.667692 L167.782609,373.667692 C168.046609,373.667692 168.26087,373.887557 168.26087,374.158462 C168.26087,374.429366 168.046609,374.649231 167.782609,374.649231 L161.086957,374.649231 C160.822957,374.649231 160.608696,374.429366 160.608696,374.158462 L160.608696,374.158462 Z M160.608696,370.232308 C160.608696,369.961403 160.822957,369.741538 161.086957,369.741538 L170.652174,369.741538 C170.916174,369.741538 171.130435,369.961403 171.130435,370.232308 C171.130435,370.503212 170.916174,370.723077 170.652174,370.723077 L161.086957,370.723077 C160.822957,370.723077 160.608696,370.503212 160.608696,370.232308 L160.608696,370.232308 Z M160.608696,366.306154 C160.608696,366.035249 160.822957,365.815385 161.086957,365.815385 L170.652174,365.815385 C170.916174,365.815385 171.130435,366.035249 171.130435,366.306154 C171.130435,366.577058 170.916174,366.796923 170.652174,366.796923 L161.086957,366.796923 C160.822957,366.796923 160.608696,366.577058 160.608696,366.306154 L160.608696,366.306154 Z M173.043478,360.907692 L158.695652,360.907692 L158.695652,359.435385 C158.695652,359.165462 158.909913,358.944615 159.173913,358.944615 L172.565217,358.944615 C172.829217,358.944615 173.043478,359.165462 173.043478,359.435385 L173.043478,360.907692 Z M173.043478,379.066154 C173.043478,379.336077 172.829217,379.556923 172.565217,379.556923 L159.173913,379.556923 C158.909913,379.556923 158.695652,379.336077 158.695652,379.066154 L158.695652,361.889231 L173.043478,361.889231 L173.043478,379.066154 Z M172.565217,357.963077 L171.130435,357.963077 L171.130435,356.490769 C171.130435,356.219865 170.916174,356 170.652174,356 C170.388174,356 170.173913,356.219865 170.173913,356.490769 L170.173913,357.963077 L166.347826,357.963077 L166.347826,356.490769 C166.347826,356.219865 166.133565,356 165.869565,356 C165.605565,356 165.391304,356.219865 165.391304,356.490769 L165.391304,357.963077 L161.565217,357.963077 L161.565217,356.490769 C161.565217,356.219865 161.350957,356 161.086957,356 C160.822957,356 160.608696,356.219865 160.608696,356.490769 L160.608696,357.963077 L159.173913,357.963077 C158.38287,357.963077 157.73913,358.623652 157.73913,359.435385 L157.73913,379.066154 C157.73913,379.877886 158.38287,380.538462 159.173913,380.538462 L172.565217,380.538462 C173.356261,380.538462 174,379.877886 174,379.066154 L174,359.435385 C174,358.623652 173.356261,357.963077 172.565217,357.963077 L172.565217,357.963077 Z" id="Opetussuunnitelmasi_icon"></path>
        </g>
    </g>
</svg>