<?xml version="1.0" encoding="UTF-8"?>
<svg width="116px" height="116px" viewBox="0 0 116 116" version="1.1" xmlns="http://www.w3.org/2000/svg" xmlns:xlink="http://www.w3.org/1999/xlink">
    <!-- Generator: Sketch 60 (88103) - https://sketch.com -->
    <title>Ops_Tyhja-tila </title>
    <desc>Created with Sketch.</desc>
    <g id="ASSETIT-+-tekstityylit" stroke="none" stroke-width="1" fill="none" fill-rule="evenodd">
        <g id="ASSETIT---VALMIUSASTE,-OPS-KORTIT,-HEADER" transform="translate(-381.000000, -1888.000000)">
            <g id="Ops_Tyhja-tila-" transform="translate(381.000000, 1888.000000)">
                <circle id="Oval" fill="#E9EEF8" cx="58" cy="58" r="58"></circle>
                <g id="OPS/kortti/kuva-2" transform="translate(28.000000, 28.000000)" fill-rule="nonzero">
                    <g id="OPS/kortti/kuva">
                        <g id="Group-2">
                            <path d="M13.0957102,30.3090147 L13.0957102,49.2109283 C13.0891077,55.1668849 13.0957102,60.0002885 7.0925063,60.0002885 C1.08926375,60.0002885 3.86948326e-05,57.6063612 3.86948326e-05,53.9684356 C3.86948326e-05,43.2554421 3.86948326e-05,33.3483733 3.86948326e-05,24.2472294 L7.00093437,24.2472294 C10.3806188,24.2472294 13.1075941,26.9750328 13.0957102,30.3090147 Z" id="Path" fill="#D9DFEB" transform="translate(6.547874, 42.123759) scale(-1, 1) translate(-6.547874, -42.123759) "></path>
                            <path d="M59.5787711,6.06187332 C59.5423427,16.184854 59.5787711,21.3118374 59.5787711,26.3733779 C59.5787711,31.4349184 59.5787711,39.0474352 59.5787711,49.2109283 C59.5719807,55.1668849 54.6791749,59.9935252 48.6415736,60 L5.6038176,60 C9.15496256,60 11.1073579,56.3491352 11.0766335,54.5574634 C10.8917453,43.7758426 10.9019868,27.600543 11.1073579,6.03156439 C11.1073579,2.66727352 13.8418298,0 17.2522386,0 C19.5258445,0 31.5902938,0 53.4455864,0 C56.8252708,0 59.5904671,2.72789138 59.5787711,6.06187332 Z" id="Path" fill="#FEFEFF"></path>
                            <path d="M48.3971194,37.8862464 L23.3971194,37.8862464 L23.3971194,43.9480317 L48.3971194,43.9480317 L48.3971194,37.8862464 Z M40.3971194,13.639105 L23.3971194,13.639105 L23.3971194,19.7008903 L40.3971194,19.7008903 L40.3971194,13.639105 Z M23.3971194,31.824461 L47.9766425,31.824461 L47.9766425,25.7626757 L23.3971194,25.7626757 L23.3971194,31.824461 Z" id="Shape" fill="#DEE1E6" transform="translate(35.897119, 28.793568) scale(1, -1) translate(-35.897119, -28.793568) "></path>
                        </g>
                    </g>
                </g>
            </g>
        </g>
    </g>
</svg>