<?xml version="1.0" encoding="UTF-8"?>
<svg width="20px" height="20px" viewBox="0 0 20 20" version="1.1" xmlns="http://www.w3.org/2000/svg" xmlns:xlink="http://www.w3.org/1999/xlink">
    <!-- Generator: Sketch 61 (89581) - https://sketch.com -->
    <title>rakennus</title>
    <desc>Created with Sketch.</desc>
    <defs>
        <path d="M10,5 L10,1 L0,1 L0,19 L20,19 L20,5 L10,5 Z M4,17 L2,17 L2,15 L4,15 L4,17 Z M4,13 L2,13 L2,11 L4,11 L4,13 Z M4,9 L2,9 L2,7 L4,7 L4,9 Z M4,5 L2,5 L2,3 L4,3 L4,5 Z M8,17 L6,17 L6,15 L8,15 L8,17 Z M8,13 L6,13 L6,11 L8,11 L8,13 Z M8,9 L6,9 L6,7 L8,7 L8,9 Z M8,5 L6,5 L6,3 L8,3 L8,5 Z M18,17 L10,17 L10,15 L12,15 L12,13 L10,13 L10,11 L12,11 L12,9 L10,9 L10,7 L18,7 L18,17 Z M16,9 L14,9 L14,11 L16,11 L16,9 Z M16,13 L14,13 L14,15 L16,15 L16,13 Z" id="path-1"></path>
    </defs>
    <g id="rakennus" stroke="none" stroke-width="1" fill="none" fill-rule="evenodd">
        <g id="Ikonit/rakennus">
            <mask id="mask-2" fill="white">
                <use xlink:href="#path-1"></use>
            </mask>
            <use id="Mask" fill="#000000" fill-rule="nonzero" xlink:href="#path-1"></use>
            <g id="Värit/Tumma-harmaa" mask="url(#mask-2)" fill="#575757" fill-rule="evenodd">
                <g transform="translate(0.000000, -0.000000)" id="Rectangle">
                    <rect x="0" y="0" width="20" height="20"></rect>
                </g>
            </g>
        </g>
    </g>
</svg>