<svg width="20" height="20" xmlns="http://www.w3.org/2000/svg" xmlns:xlink="http://www.w3.org/1999/xlink">
    <defs>
        <path d="M10 5V1H0v18h20V5H10zM4 17H2v-2h2v2zm0-4H2v-2h2v2zm0-4H2V7h2v2zm0-4H2V3h2v2zm4 12H6v-2h2v2zm0-4H6v-2h2v2zm0-4H6V7h2v2zm0-4H6V3h2v2zm10 12h-8v-2h2v-2h-2v-2h2V9h-2V7h8v10zm-2-8h-2v2h2V9zm0 4h-2v2h2v-2z" id="a"/>
    </defs>
    <g fill="none" fill-rule="evenodd">
        <mask id="b" fill="#fff">
            <use xlink:href="#a"/>
        </mask>
        <use fill="#000" fill-rule="nonzero" xlink:href="#a"/>
        <g mask="url(#b)" fill="#575757">
            <path d="M0 0h20v20H0z"/>
        </g>
    </g>
</svg>
