<?xml version="1.0" encoding="UTF-8"?>
<svg width="27px" height="27px" viewBox="0 0 27 27" version="1.1" xmlns="http://www.w3.org/2000/svg" xmlns:xlink="http://www.w3.org/1999/xlink">
    <!-- Generator: Sketch 53.1 (72631) - https://sketchapp.com -->
    <title>Tiedotteet_icon</title>
    <desc>Created with Sketch.</desc>
    <g id="Page-1" stroke="none" stroke-width="1" fill="none" fill-rule="evenodd">
        <g id="Virkailija-etusivu" transform="translate(-148.000000, -844.000000)" fill="#001A58" stroke="#001A58" stroke-width="0.7">
            <path d="M173,846.5 C173,846.225 172.776,846 172.5,846 L155.5,846 C155.224,846 155,846.225 155,846.5 L155,856.5 L155,857 L155,865 L155,866.5 L155,867 C155,867.771 154.7,868.469 154.222,869 L169.5,869 C171.43,869 173,867.43 173,865.5 L173,846.5 Z M154,857 L150.5,857 C150.224,857 150,857.225 150,857.5 L150,865 L150,867 C150,868.103 150.897,869 152,869 C153.103,869 154,868.103 154,867 L154,866.5 L154,865 L154,857 Z M174,846.5 L174,865.5 C174,867.981 171.981,870 169.5,870 L152,870 C150.343,870 149,868.656 149,867 L149,865 L149,857.5 C149,856.673 149.673,856 150.5,856 L154,856 L154,846.5 C154,845.673 154.673,845 155.5,845 L172.5,845 C173.327,845 174,845.673 174,846.5 L174,846.5 Z M159,853 L169,853 L169,850 L159,850 L159,853 Z M170,850 L170,853 C170,853.553 169.552,854 169,854 L159,854 C158.448,854 158,853.553 158,853 L158,850 C158,849.447 158.448,849 159,849 L169,849 C169.552,849 170,849.447 170,850 L170,850 Z M166.5,865 L158.5,865 C158.224,865 158,865.224 158,865.5 C158,865.775 158.224,866 158.5,866 L166.5,866 C166.776,866 167,865.775 167,865.5 C167,865.224 166.776,865 166.5,865 L166.5,865 Z M169.5,861 L158.5,861 C158.224,861 158,861.224 158,861.5 C158,861.775 158.224,862 158.5,862 L169.5,862 C169.776,862 170,861.775 170,861.5 C170,861.224 169.776,861 169.5,861 L169.5,861 Z M170,857.5 C170,857.775 169.776,858 169.5,858 L158.5,858 C158.224,858 158,857.775 158,857.5 C158,857.224 158.224,857 158.5,857 L169.5,857 C169.776,857 170,857.224 170,857.5 L170,857.5 Z" id="Tiedotteet_icon"></path>
        </g>
    </g>
</svg>