<?xml version="1.0" encoding="UTF-8"?>
<svg width="27px" height="27px" viewBox="0 0 27 27" version="1.1" xmlns="http://www.w3.org/2000/svg" xmlns:xlink="http://www.w3.org/1999/xlink">
    <!-- Generator: Sketch 53.1 (72631) - https://sketchapp.com -->
    <title>Työryhmä_icon</title>
    <desc>Created with Sketch.</desc>
    <g id="Page-1" stroke="none" stroke-width="1" fill="none" fill-rule="evenodd">
        <g id="Virkailija-etusivu" transform="translate(-687.000000, -844.000000)" fill="#001A58" fill-rule="nonzero" stroke="#001A58" stroke-width="0.1">
            <g id="Työryhmä_icon" transform="translate(688.000000, 845.000000)">
                <path d="M19.8529412,0 C18.0948188,0 16.6666667,1.42815217 16.6666667,3.18627451 C16.6666667,4.94439685 18.0948188,6.37254902 19.8529412,6.37254902 C21.6110635,6.37254902 23.0392157,4.94439685 23.0392157,3.18627451 C23.0392157,1.42815217 21.6110635,0 19.8529412,0 Z M19.8529412,5.10938194 C18.7908497,5.10938194 17.9298337,4.24836601 17.9298337,3.18627451 C17.9298337,2.12418301 18.7908497,1.26316708 19.8529412,1.26316708 C20.9150327,1.26316708 21.7760486,2.12418301 21.7760486,3.18627451 C21.7760486,4.24836601 20.9150327,5.10938194 19.8529412,5.10938194 Z" id="Shape"></path>
                <path d="M12.5,6.37254902 C14.2581223,6.37254902 15.6862745,4.94439685 15.6862745,3.18627451 C15.6862745,1.42815217 14.2581223,0 12.5,0 C10.7418777,0 9.31372549,1.42815217 9.31372549,3.18627451 C9.31372549,4.94439685 10.7418777,6.37254902 12.5,6.37254902 Z M12.5,1.26316708 C13.5620915,1.26316708 14.4231074,2.12418301 14.4231074,3.18627451 C14.4231074,4.24836601 13.5620915,5.10938194 12.5,5.10938194 C11.4379085,5.10938194 10.5768926,4.24836601 10.5768926,3.18627451 C10.5768926,2.12933879 11.4379085,1.26316708 12.5,1.26316708 Z" id="Shape"></path>
                <path d="M21.9728993,7.35294118 L19.3754197,7.35294118 C19.0396239,7.35294118 18.7680243,7.6341081 18.7680243,7.98173267 C18.7680243,8.32935724 19.0396239,8.61052416 19.3754197,8.61052416 L21.9728993,8.61052416 C22.9753486,8.61052416 23.7901474,9.45402495 23.7901474,10.4917865 L23.7901474,14.4945811 C23.7901474,15.2767364 23.3111445,15.9873219 22.5951092,16.2582646 C22.3580769,16.3502829 22.2000553,16.5854407 22.2000553,16.8461591 L22.2000553,22.5001704 C22.2000553,23.1851953 21.6617943,23.742417 21.000079,23.742417 L18.2544542,23.742417 C17.9186584,23.742417 17.6470588,24.0235839 17.6470588,24.3712085 C17.6470588,24.7188331 17.9186584,25 18.2544542,25 L21.000079,25 C22.3284478,25 23.409908,23.8804444 23.409908,22.5052825 L23.409908,17.2397928 C24.3777901,16.6979074 25,15.6396974 25,14.4843569 L25,10.4815623 C25,8.75366369 23.6420021,7.35294118 21.9728993,7.35294118 Z" id="Path"></path>
                <path d="M11.0628496,25 L13.9423293,25 C15.3354589,25 16.4696425,23.8797954 16.4696425,22.5038363 L16.4696425,17.2506394 C17.4847109,16.7084399 18.1372549,15.6496164 18.1372549,14.4936061 L18.1372549,10.488491 C18.1372549,8.75959079 16.7130518,7.35294118 14.9625767,7.35294118 L10.0374233,7.35294118 C8.28694822,7.35294118 6.8627451,8.75959079 6.8627451,10.488491 L6.8627451,14.4936061 C6.8627451,15.6496164 7.51528907,16.7084399 8.53035748,17.2506394 L8.53035748,22.5038363 C8.5355364,23.8797954 9.66971998,25 11.0628496,25 Z M8.13675953,14.4936061 L8.13675953,10.488491 C8.13675953,9.45012788 8.9912814,8.60613811 10.0426022,8.60613811 L14.9677556,8.60613811 C16.0190764,8.60613811 16.8735983,9.45012788 16.8735983,10.488491 L16.8735983,14.4936061 C16.8735983,15.2762148 16.371243,15.9872123 15.6254785,16.258312 C15.3768903,16.3503836 15.2111649,16.5856777 15.2111649,16.8465473 L15.2111649,22.5038363 C15.2111649,23.1892583 14.6466625,23.7468031 13.9526872,23.7468031 L11.0732074,23.7468031 C10.3792321,23.7468031 9.81472975,23.1892583 9.81472975,22.5038363 L9.81472975,16.8465473 C9.81472975,16.5856777 9.6490043,16.3503836 9.40041611,16.258312 C8.63911481,15.9872123 8.13675953,15.2762148 8.13675953,14.4936061 Z" id="Shape"></path>
                <path d="M8.33333333,3.18627451 C8.33333333,1.42815217 6.90518117,0 5.14705882,0 C3.38893648,0 1.96078431,1.42815217 1.96078431,3.18627451 C1.96078431,4.94439685 3.38893648,6.37254902 5.14705882,6.37254902 C6.90002538,6.37254902 8.33333333,4.94439685 8.33333333,3.18627451 Z M3.22395139,3.18627451 C3.22395139,2.12933879 4.08496732,1.26316708 5.14705882,1.26316708 C6.20915033,1.26316708 7.07016625,2.12418301 7.07016625,3.18627451 C7.07016625,4.24836601 6.20915033,5.10938194 5.14705882,5.10938194 C4.08496732,5.10938194 3.22395139,4.24836601 3.22395139,3.18627451 Z" id="Shape"></path>
                <path d="M3.99992099,25 L6.74554577,25 C7.0813416,25 7.35294118,24.7187516 7.35294118,24.3710263 C7.35294118,24.023301 7.0813416,23.7420526 6.74554577,23.7420526 L3.99992099,23.7420526 C3.33820567,23.7420526 2.79994469,23.1846694 2.79994469,22.499446 L2.79994469,16.8489099 C2.79994469,16.588116 2.64192312,16.35289 2.40489077,16.2608451 C1.6937937,15.9898239 1.21479082,15.2841461 1.21479082,14.4966506 L1.21479082,10.4926961 C1.21479082,9.45463378 2.02958954,8.61088857 3.03203887,8.61088857 L5.61964208,8.61088857 C5.95543792,8.61088857 6.22703749,8.32964017 6.22703749,7.98191488 C6.22703749,7.63418958 5.95543792,7.35294118 5.61964208,7.35294118 L3.0271007,7.35294118 C1.35799787,7.35294118 0,8.75918319 0,10.4875825 L0,14.491537 C0,15.6472122 0.622209932,16.7057289 1.59009205,17.2477713 L1.59009205,22.499446 C1.59009205,23.88012 2.67155217,25 3.99992099,25 Z" id="Path"></path>
            </g>
        </g>
    </g>
</svg>