<?xml version="1.0" encoding="UTF-8"?>
<svg width="27px" height="27px" viewBox="0 0 27 27" version="1.1" xmlns="http://www.w3.org/2000/svg" xmlns:xlink="http://www.w3.org/1999/xlink">
    <!-- Generator: Sketch 53.1 (72631) - https://sketchapp.com -->
    <title>valtakunnalliset perusteet_icon</title>
    <desc>Created with Sketch.</desc>
    <g id="Page-1" stroke="none" stroke-width="1" fill="none" fill-rule="evenodd">
        <g id="Virkailija-etusivu" transform="translate(-150.000000, -715.000000)" fill="#001A58" stroke="#001A58" stroke-width="0.2">
            <path d="M152,740 L175,740 L175,739 L152,739 L152,740 Z M153,738 L174,738 L174,737 L153,737 L153,738 Z M154,736 L155,736 L155,728 L154,728 L154,736 Z M156,736 L159,736 L159,728 L156,728 L156,736 Z M160,736 L161,736 L161,728 L160,728 L160,736 Z M162,736 L165,736 L165,728 L162,728 L162,736 Z M166,736 L167,736 L167,728 L166,728 L166,736 Z M168,736 L171,736 L171,728 L168,728 L168,736 Z M172,736 L173,736 L173,728 L172,728 L172,736 Z M153,727 L174,727 L174,726 L153,726 L153,727 Z M163.5,717 L173.408,725 L153.592,725 L163.5,717 Z M175,737 C175,736.447 174.552,736 174,736 L174,728 C174.552,728 175,727.553 175,727 L175,725.717 C175,725.264 174.795,724.834 174.442,724.55 L164.116,716.213 C163.935,716.07 163.718,716 163.5,716 C163.282,716 163.064,716.07 162.884,716.213 L152.558,724.55 C152.205,724.834 152,725.264 152,725.717 L152,727 C152,727.553 152.448,728 153,728 L153,736 C152.448,736 152,736.447 152,737 L152,738 C151.448,738 151,738.447 151,739 L151,740 C151,740.553 151.448,741 152,741 L175,741 C175.552,741 176,740.553 176,740 L176,739 C176,738.447 175.552,738 175,738 L175,737 Z" id="valtakunnalliset-perusteet_icon"></path>
        </g>
    </g>
</svg>