<?xml version="1.0" encoding="UTF-8"?>
<svg width="20px" height="20px" viewBox="0 0 20 20" version="1.1" xmlns="http://www.w3.org/2000/svg" xmlns:xlink="http://www.w3.org/1999/xlink">
    <!-- Generator: Sketch 61 (89581) - https://sketch.com -->
    <title>Yliviivaus</title>
    <desc>Created with Sketch.</desc>
    <defs>
        <path d="M5.24,8.75 C4.98,8.27 4.85,7.72 4.85,7.08 C4.85,6.47 4.98,5.92 5.25,5.41 C5.51,4.91 5.88,4.48 6.36,4.12 C6.84,3.77 7.41,3.49 8.06,3.29 C8.72,3.1 9.45,3 10.24,3 C11.05,3 11.78,3.11 12.45,3.34 C13.11,3.56 13.68,3.88 14.14,4.28 C14.61,4.68 14.97,5.16 15.22,5.71 C15.47,6.26 15.6,6.86 15.6,7.52 L12.59,7.52 C12.59,7.21 12.54,6.93 12.44,6.67 C12.35,6.4 12.2,6.18 12,5.99 C11.8,5.8 11.55,5.66 11.25,5.55 C10.95,5.45 10.59,5.39 10.19,5.39 C9.8,5.39 9.45,5.43 9.16,5.52 C8.87,5.61 8.63,5.73 8.44,5.88 C8.25,6.04 8.1,6.22 8,6.43 C7.9,6.64 7.85,6.86 7.85,7.09 C7.85,7.57 8.1,7.97 8.59,8.3 C8.97,8.55 9.36,8.78 10,9 L5.39,9 C5.34,8.92 5.28,8.83 5.24,8.75 Z M19,12 L19,10 L1,10 L1,12 L10.62,12 C10.8,12.07 11.02,12.14 11.17,12.2 C11.54,12.37 11.83,12.54 12.04,12.71 C12.25,12.88 12.39,13.07 12.47,13.28 C12.54,13.48 12.58,13.71 12.58,13.97 C12.58,14.2 12.53,14.42 12.44,14.63 C12.35,14.83 12.21,15.01 12.02,15.16 C11.83,15.31 11.6,15.42 11.31,15.51 C11.02,15.59 10.68,15.64 10.3,15.64 C9.87,15.64 9.47,15.6 9.12,15.51 C8.77,15.42 8.46,15.28 8.21,15.09 C7.96,14.9 7.76,14.65 7.62,14.34 C7.48,14.03 7.37,13.58 7.37,13.13 L4.4,13.13 C4.4,13.68 4.48,14.26 4.64,14.71 C4.8,15.16 5.01,15.56 5.29,15.92 C5.57,16.27 5.89,16.58 6.27,16.84 C6.64,17.1 7.05,17.32 7.49,17.49 C7.93,17.66 8.39,17.79 8.87,17.88 C9.35,17.96 9.83,18.01 10.31,18.01 C11.11,18.01 11.84,17.92 12.49,17.73 C13.14,17.54 13.7,17.28 14.16,16.94 C14.62,16.6 14.98,16.17 15.23,15.67 C15.48,15.17 15.61,14.6 15.61,13.96 C15.61,13.36 15.51,12.82 15.3,12.35 C15.25,12.24 15.19,12.12 15.13,12.02 L19,12.02 L19,12 Z" id="path-1"></path>
    </defs>
    <g id="ASSETIT-+-tekstityylit" stroke="none" stroke-width="1" fill="none" fill-rule="evenodd">
        <g id="Ryhma-Copy-62">
            <mask id="mask-2" fill="white">
                <use xlink:href="#path-1"></use>
            </mask>
            <use id="Shape" fill="#000000" fill-rule="nonzero" xlink:href="#path-1"></use>
        </g>
    </g>
</svg>